<svg xmlns="http://www.w3.org/2000/svg" width="4000" height="200"><style>.line{stroke-width:6px;stroke-linecap:round;stroke-dasharray:20px 200px;stroke-dashoffset:220px;stroke:rgba(255,255,255,.2);animation:draw 6s linear infinite}.speed2{stroke-dasharray:40px 200px;stroke-dashoffset:240px;stroke:rgba(255,255,255,.5);animation:draw 3s linear infinite}</style><line x1="3950" x2="3750" y1="-55" y2="345" class="line speed1"/><line x1="1071" x2="871" y1="-35" y2="365" class="line speed1"/><line x1="2509" x2="2309" y1="-165" y2="235" class="line speed1"/><line x1="850" x2="650" y1="-92" y2="308" class="line speed1"/><line x1="2595" x2="2395" y1="-26" y2="374" class="line speed1"/><line x1="937" x2="737" y1="-62" y2="338" class="line speed1"/><line x1="3177" x2="2977" y1="-97" y2="303" class="line speed1"/><line x1="1989" x2="1789" y1="-68" y2="332" class="line speed1"/><line x1="1508" x2="1308" y1="-160" y2="240" class="line speed1"/><line x1="80" x2="-120" y1="-143" y2="257" class="line speed1"/><line x1="965" x2="765" y1="-100" y2="300" class="line speed1"/><line x1="2988" x2="2788" y1="-1" y2="399" class="line speed1"/><line x1="449" x2="249" y1="-69" y2="331" class="line speed1"/><line x1="2751" x2="2551" y1="-72" y2="328" class="line speed1"/><line x1="3801" x2="3601" y1="-32" y2="368" class="line speed1"/><line x1="1812" x2="1612" y1="-96" y2="304" class="line speed1"/><line x1="3047" x2="2847" y1="-107" y2="293" class="line speed1"/><line x1="3184" x2="2984" y1="-148" y2="252" class="line speed1"/><line x1="2364" x2="2164" y1="-30" y2="370" class="line speed1"/><line x1="568" x2="368" y1="-43" y2="357" class="line speed1"/><line x1="110" x2="-90" y1="-175" y2="225" class="line speed1"/><line x1="3315" x2="3115" y1="-17" y2="383" class="line speed1"/><line x1="1316" x2="1116" y1="-28" y2="372" class="line speed1"/><line x1="3939" x2="3739" y1="-152" y2="248" class="line speed1"/><line x1="2998" x2="2798" y1="-76" y2="324" class="line speed1"/><line x1="3414" x2="3214" y1="-39" y2="361" class="line speed1"/><line x1="3092" x2="2892" y1="-132" y2="268" class="line speed1"/><line x1="1914" x2="1714" y1="-77" y2="323" class="line speed1"/><line x1="1271" x2="1071" y1="-88" y2="312" class="line speed1"/><line x1="523" x2="323" y1="-99" y2="301" class="line speed1"/><line x1="3880" x2="3680" y1="-3" y2="397" class="line speed1"/><line x1="1825" x2="1625" y1="-171" y2="229" class="line speed1"/><line x1="1451" x2="1251" y1="-107" y2="293" class="line speed1"/><line x1="88" x2="-112" y1="-72" y2="328" class="line speed1"/><line x1="2147" x2="1947" y1="-151" y2="249" class="line speed1"/><line x1="1817" x2="1617" y1="-59" y2="341" class="line speed1"/><line x1="143" x2="-57" y1="-94" y2="306" class="line speed1"/><line x1="2064" x2="1864" y1="-184" y2="216" class="line speed1"/><line x1="2509" x2="2309" y1="-182" y2="218" class="line speed1"/><line x1="2947" x2="2747" y1="-194" y2="206" class="line speed1"/><line x1="3607" x2="3407" y1="-140" y2="260" class="line speed1"/><line x1="3843" x2="3643" y1="-94" y2="306" class="line speed1"/><line x1="3142" x2="2942" y1="-88" y2="312" class="line speed1"/><line x1="3855" x2="3655" y1="-15" y2="385" class="line speed1"/><line x1="3744" x2="3544" y1="-172" y2="228" class="line speed1"/><line x1="1087" x2="887" y1="-126" y2="274" class="line speed1"/><line x1="774" x2="574" y1="-4" y2="396" class="line speed1"/><line x1="707" x2="507" y1="-14" y2="386" class="line speed1"/><line x1="3702" x2="3502" y1="-14" y2="386" class="line speed1"/><line x1="1308" x2="1108" y1="-67" y2="333" class="line speed1"/><line x1="384" x2="184" y1="-186" y2="214" class="line speed1"/><line x1="1996" x2="1796" y1="-47" y2="353" class="line speed1"/><line x1="725" x2="525" y1="-164" y2="236" class="line speed1"/><line x1="1818" x2="1618" y1="-70" y2="330" class="line speed1"/><line x1="761" x2="561" y1="-87" y2="313" class="line speed1"/><line x1="3787" x2="3587" y1="-142" y2="258" class="line speed1"/><line x1="1697" x2="1497" y1="-79" y2="321" class="line speed1"/><line x1="1319" x2="1119" y1="-42" y2="358" class="line speed1"/><line x1="3410" x2="3210" y1="-6" y2="394" class="line speed1"/><line x1="3111" x2="2911" y1="-87" y2="313" class="line speed1"/><line x1="3771" x2="3571" y1="-123" y2="277" class="line speed1"/><line x1="3075" x2="2875" y1="-152" y2="248" class="line speed1"/><line x1="377" x2="177" y1="-31" y2="369" class="line speed1"/><line x1="3116" x2="2916" y1="-76" y2="324" class="line speed1"/><line x1="1337" x2="1137" y1="-39" y2="361" class="line speed1"/><line x1="1733" x2="1533" y1="-9" y2="391" class="line speed1"/><line x1="139" x2="-61" y1="-105" y2="295" class="line speed1"/><line x1="315" x2="115" y1="-2" y2="398" class="line speed1"/><line x1="1398" x2="1198" y1="-35" y2="365" class="line speed1"/><line x1="2109" x2="1909" y1="-193" y2="207" class="line speed1"/><line x1="1870" x2="1670" y1="-175" y2="225" class="line speed1"/><line x1="3284" x2="3084" y1="-142" y2="258" class="line speed1"/><line x1="1435" x2="1235" y1="-192" y2="208" class="line speed1"/><line x1="2870" x2="2670" y1="-99" y2="301" class="line speed1"/><line x1="3856" x2="3656" y1="-106" y2="294" class="line speed1"/><line x1="830" x2="630" y1="-87" y2="313" class="line speed1"/><line x1="3573" x2="3373" y1="-59" y2="341" class="line speed1"/><line x1="83" x2="-117" y1="-88" y2="312" class="line speed1"/><line x1="3959" x2="3759" y1="-190" y2="210" class="line speed1"/><line x1="857" x2="657" y1="-138" y2="262" class="line speed1"/><line x1="1092" x2="892" y1="-53" y2="347" class="line speed1"/><line x1="1389" x2="1189" y1="-154" y2="246" class="line speed1"/><line x1="1683" x2="1483" y1="-154" y2="246" class="line speed1"/><line x1="2586" x2="2386" y1="-19" y2="381" class="line speed1"/><line x1="277" x2="77" y1="-167" y2="233" class="line speed1"/><line x1="483" x2="283" y1="-171" y2="229" class="line speed1"/><line x1="3845" x2="3645" y1="-63" y2="337" class="line speed1"/><line x1="1121" x2="921" y1="-86" y2="314" class="line speed1"/><line x1="2833" x2="2633" y1="-49" y2="351" class="line speed1"/><line x1="2233" x2="2033" y1="-116" y2="284" class="line speed1"/><line x1="2204" x2="2004" y1="-185" y2="215" class="line speed1"/><line x1="702" x2="502" y1="-30" y2="370" class="line speed1"/><line x1="3672" x2="3472" y1="-69" y2="331" class="line speed1"/><line x1="3770" x2="3570" y1="-46" y2="354" class="line speed1"/><line x1="1902" x2="1702" y1="-42" y2="358" class="line speed1"/><line x1="3165" x2="2965" y1="-18" y2="382" class="line speed1"/><line x1="91" x2="-109" y1="-174" y2="226" class="line speed1"/><line x1="2521" x2="2321" y1="-7" y2="393" class="line speed1"/><line x1="2920" x2="2720" y1="-53" y2="347" class="line speed1"/><line x1="3998" x2="3798" y1="-126" y2="274" class="line speed1"/><line x1="322" x2="122" y1="-46" y2="354" class="line speed2"/><line x1="2365" x2="2165" y1="-16" y2="384" class="line speed2"/><line x1="3869" x2="3669" y1="-187" y2="213" class="line speed2"/><line x1="3701" x2="3501" y1="-139" y2="261" class="line speed2"/><line x1="1272" x2="1072" y1="-25" y2="375" class="line speed2"/><line x1="920" x2="720" y1="-145" y2="255" class="line speed2"/><line x1="1178" x2="978" y1="-33" y2="367" class="line speed2"/><line x1="435" x2="235" y1="-163" y2="237" class="line speed2"/><line x1="3528" x2="3328" y1="-122" y2="278" class="line speed2"/><line x1="2035" x2="1835" y1="-28" y2="372" class="line speed2"/><line x1="2054" x2="1854" y1="-16" y2="384" class="line speed2"/><line x1="41" x2="-159" y1="-127" y2="273" class="line speed2"/><line x1="3179" x2="2979" y1="-157" y2="243" class="line speed2"/><line x1="3592" x2="3392" y1="-71" y2="329" class="line speed2"/><line x1="820" x2="620" y1="-169" y2="231" class="line speed2"/><line x1="2364" x2="2164" y1="-124" y2="276" class="line speed2"/><line x1="240" x2="40" y1="-157" y2="243" class="line speed2"/><line x1="3895" x2="3695" y1="-161" y2="239" class="line speed2"/><line x1="842" x2="642" y1="-21" y2="379" class="line speed2"/><line x1="59" x2="-141" y1="-46" y2="354" class="line speed2"/><line x1="3701" x2="3501" y1="-126" y2="274" class="line speed2"/><line x1="3198" x2="2998" y1="-81" y2="319" class="line speed2"/><line x1="1309" x2="1109" y1="-126" y2="274" class="line speed2"/><line x1="253" x2="53" y1="-95" y2="305" class="line speed2"/><line x1="1700" x2="1500" y1="-42" y2="358" class="line speed2"/><line x1="1016" x2="816" y1="-144" y2="256" class="line speed2"/><line x1="1404" x2="1204" y1="-186" y2="214" class="line speed2"/><line x1="1714" x2="1514" y1="-175" y2="225" class="line speed2"/><line x1="3729" x2="3529" y1="-92" y2="308" class="line speed2"/><line x1="2188" x2="1988" y1="-55" y2="345" class="line speed2"/><line x1="2884" x2="2684" y1="-125" y2="275" class="line speed2"/><line x1="1647" x2="1447" y1="-180" y2="220" class="line speed2"/><line x1="33" x2="-167" y1="-18" y2="382" class="line speed2"/><line x1="3607" x2="3407" y1="-101" y2="299" class="line speed2"/><line x1="39" x2="-161" y1="-97" y2="303" class="line speed2"/><line x1="506" x2="306" y1="-59" y2="341" class="line speed2"/><line x1="2533" x2="2333" y1="-145" y2="255" class="line speed2"/><line x1="580" x2="380" y1="-157" y2="243" class="line speed2"/><line x1="1739" x2="1539" y1="-147" y2="253" class="line speed2"/><line x1="3094" x2="2894" y1="-108" y2="292" class="line speed2"/><line x1="3497" x2="3297" y1="-82" y2="318" class="line speed2"/><line x1="3370" x2="3170" y1="-93" y2="307" class="line speed2"/><line x1="3986" x2="3786" y1="-49" y2="351" class="line speed2"/><line x1="1527" x2="1327" y1="-140" y2="260" class="line speed2"/><line x1="1880" x2="1680" y1="-188" y2="212" class="line speed2"/><line x1="3988" x2="3788" y1="-30" y2="370" class="line speed2"/><line x1="3007" x2="2807" y1="-30" y2="370" class="line speed2"/><line x1="191" x2="-9" y1="-85" y2="315" class="line speed2"/><line x1="2937" x2="2737" y1="-130" y2="270" class="line speed2"/><line x1="397" x2="197" y1="-76" y2="324" class="line speed2"/></svg>